<svg xmlns="http://www.w3.org/2000/svg" width="180" height="180" viewBox="0 0 180 180">
  <style type="text/css">
    @media (prefers-color-scheme: dark) {
      path {
        fill: #fff;
      }
    }
  </style>
  <g transform="translate(10367 15616)"><rect width="180" height="180" transform="translate(-10367 -15616)" fill="none"/><path d="M77.625,131.777A45.636,45.636,0,0,1,46.574,144C20.851,144,0,122.51,0,96,0,75.072,13,57.272,31.124,50.7q-.072-1.343-.073-2.7c0-26.51,20.851-48,46.574-48S124.2,21.49,124.2,48q0,1.362-.073,2.7C142.254,57.272,155.25,75.072,155.25,96c0,26.51-20.851,48-46.574,48A45.636,45.636,0,0,1,77.625,131.777Z" transform="translate(-10354.625 -15598)" fill="#ef6d58"/></g>
</svg>