<svg width="185" height="35" viewBox="0 0 185 35" fill="none" xmlns="http://www.w3.org/2000/svg">
<g clip-path="url(#clip0_396_10)">
<path d="M7.53125 30.8125C6.92708 30.3333 6.35417 29.8125 5.8125 29.25L5.46875 29.1875C4.78125 28.1458 4.41667 26.9688 4.375 25.6562L4.4375 24.9062L4.28125 24.5625C4.61458 23.7083 4.72917 22.7917 4.625 21.8125C4.45833 21.4792 4.375 21.1042 4.375 20.6875C4.35417 19.9375 4.35417 19.1979 4.375 18.4688L4.09375 17.5312C4.15625 16.2812 4.13542 15.0312 4.03125 13.7812C3.90625 13.0312 3.76042 12.3021 3.59375 11.5938C3.42708 10.8854 3.16667 10.2188 2.8125 9.59375L1.625 8.625C1.16667 7.89583 0.770833 7.125 0.4375 6.3125L1.03125 6.25C2.40625 6.29167 3.6875 6.57292 4.875 7.09375C6.52083 6.46875 8.19792 5.95833 9.90625 5.5625C11.6146 5.16667 13.3542 4.79167 15.125 4.4375L15.4688 4.53125C16.9896 4.23958 18.5417 4 20.125 3.8125C21.7292 3.60417 23.3021 3.33333 24.8438 3L25.2812 3.40625C26.2396 3.63542 27.1458 3.96875 28 4.40625C28.8542 4.82292 29.6458 5.375 30.375 6.0625L30.5625 6.5L31.1562 7V7.34375L31.0625 7.875L31.25 8.375L31.1562 8.71875C30.9896 9.17708 30.6771 9.35417 30.2188 9.25L29.5312 9.5C28.3438 12.4583 27.4896 15.5625 26.9688 18.8125C26.4688 22.0625 25.6458 25.1979 24.5 28.2188L24.0625 28.5L22.7188 30.625L22.0312 30.7188L20.8438 29.7812L19.9062 28.6562L18.2812 28.5L18.0938 28.2188C17.3229 28.1354 16.5521 28.0833 15.7812 28.0625L15.0312 28.9062H14.4375L13.4062 27.9688H12.9062C12.6146 28.1354 12.3021 28.1979 11.9688 28.1562L11.625 28.0625C10.7083 28.2917 9.85417 28.6042 9.0625 29L7.875 30.5312L7.53125 30.8125ZM9.46875 25.5938L12.5625 24.9688C12.8333 24.0729 13 23.1354 13.0625 22.1562L12.8125 18.4062L12.9062 17.9688L12.3125 17.7188C11.4583 17.7604 10.6042 17.875 9.75 18.0625L9.125 18.6562L9.0625 19L8.28125 19.0625L8.1875 19.4062L8.28125 19.9375L8.1875 20.3438L8.46875 21.0312L8.375 21.9062L8.53125 22.4062L8.46875 22.9375C8.69792 23.7917 8.83333 24.6771 8.875 25.5938H9.46875ZM20.1562 24.8125C20.3854 23.6667 20.6771 22.5521 21.0312 21.4688C21.4062 20.3854 21.625 19.25 21.6875 18.0625C21.2917 17.875 20.8333 17.8125 20.3125 17.875L19.9062 17.9688L19.5625 17.875C19.1042 17.7708 18.6979 17.7396 18.3438 17.7812L18 17.875C17.6042 17.7083 17.1562 17.6562 16.6562 17.7188L16.4688 18.125C16.4688 19.0208 16.5 19.9062 16.5625 20.7812L16.4688 21.125C16.6562 21.9167 16.7708 22.7708 16.8125 23.6875L16.75 24.5625C17.875 24.6042 19.0104 24.6875 20.1562 24.8125ZM12.5625 14.375C12.7917 14.1458 12.875 13.8542 12.8125 13.5L12.7188 9.40625L12.4688 9.0625H11.6875C10.9583 9.22917 10.2083 9.375 9.4375 9.5C8.66667 9.60417 7.9375 9.80208 7.25 10.0938C7 11.8438 7.22917 13.5521 7.9375 15.2188C8.79167 14.9896 9.58333 14.8229 10.3125 14.7188C11.0625 14.5938 11.8125 14.4792 12.5625 14.375ZM22.625 14.125C22.9167 13.0833 23.125 12.0104 23.25 10.9062C23.3958 9.80208 23.5521 8.70833 23.7188 7.625C23.5104 7.4375 23.2604 7.375 22.9688 7.4375H21.6875C20.2083 7.5 18.8438 7.76042 17.5938 8.21875L16.4062 8.46875L16.3125 8.96875C16.4167 9.48958 16.5 10.0104 16.5625 10.5312L16.4062 12.8438L16.4688 13.4375L18.1875 13.5L18.5312 13.4375C19.8438 13.7083 21.2083 13.9375 22.625 14.125ZM52.65 34.2188C52.1917 33.9271 51.8792 33.5312 51.7125 33.0312C51.3167 31.8229 51.0354 30.5625 50.8688 29.25C50.7021 27.9375 50.65 26.5729 50.7125 25.1562L50.8688 21.9062L50.7125 20.2812C49.3375 20.4479 48.1708 20.875 47.2125 21.5625L46.6813 22.4062L45.9313 23.4375L45.2438 23.3438L44.7125 23.4375C43.9208 23.3333 43.2125 23.0729 42.5875 22.6562C41.9 21.9271 41.6188 21.0521 41.7438 20.0312C41.9104 19.5104 41.9625 18.9375 41.9 18.3125C41.6708 16.875 41.4313 15.4583 41.1813 14.0625C40.9313 12.6667 40.5146 11.3125 39.9313 10C39.2021 9.4375 38.4417 8.95833 37.65 8.5625C38.8375 8.33333 40.0875 8.1875 41.4 8.125L45.3063 8.71875C46.2854 8.42708 47.2542 8.1875 48.2125 8C49.1917 7.79167 50.1292 7.45833 51.025 7L51.1188 5.8125C51.1813 4.27083 50.7229 2.95833 49.7438 1.875L48.3063 1.1875C49.3271 0.6875 50.3792 0.40625 51.4625 0.34375C52.2125 0.677083 52.9625 0.9375 53.7125 1.125C54.4833 1.29167 55.2438 1.51042 55.9938 1.78125L56.0875 2.71875C55.8583 2.94792 55.7125 3.23958 55.65 3.59375L55.15 4.03125C55.15 4.69792 55.0563 5.32292 54.8688 5.90625L54.9625 6.5H55.4C56.2958 6.20833 57.1813 5.92708 58.0563 5.65625C58.9521 5.36458 59.8583 5.10417 60.775 4.875L60.6813 4.53125L61.8063 4.78125C63.4521 4.84375 64.9104 5.17708 66.1813 5.78125C67.4729 6.36458 68.7125 7.0625 69.9 7.875L70.15 8.625L69.7125 9.59375C68.6917 9.63542 67.8167 10.0312 67.0875 10.7812C66.4 12.2604 65.8688 13.8333 65.4938 15.5C65.1396 17.1458 64.4417 18.6562 63.4 20.0312C62.6708 20.4688 61.8479 20.75 60.9313 20.875L60.2438 20.5312L59.9 19.9375C58.8792 19.5833 57.8063 19.4062 56.6813 19.4062H56.0875C55.6292 19.4062 55.2229 19.5208 54.8688 19.75L54.7125 20.4375L54.8688 21.2188L54.6188 21.8125C54.7854 22.1042 54.8479 22.4167 54.8063 22.75C54.9313 24.6667 55.0146 26.6042 55.0563 28.5625C54.9313 29.6042 54.7542 30.6042 54.525 31.5625L54.6188 32.5C54.5146 33.0833 54.2854 33.6042 53.9313 34.0625L52.65 34.2188ZM51.025 17.375L51.2125 16.5938C51.0458 15.6146 50.9625 14.5833 50.9625 13.5L51.025 13.0938L50.8688 9.84375L50.4313 9.75C49.6396 10.0417 48.8479 10.2604 48.0563 10.4062C47.2646 10.5312 46.4938 10.7708 45.7438 11.125L45.4938 11.7188L45.0563 12.0625V12.4062C45.1813 13.1354 45.3271 13.875 45.4938 14.625L45.4 14.9688C45.5667 16.1146 45.8583 17.2292 46.275 18.3125L46.5875 18.4062C47.275 18.1771 48.0042 17.9896 48.775 17.8438C49.5458 17.6979 50.2958 17.5417 51.025 17.375ZM58.7125 16.5H59.15L59.65 16.3438L60.0875 16.4375C60.4833 15.2292 60.8063 14 61.0563 12.75C61.3271 11.5 61.5458 10.2188 61.7125 8.90625C61.3167 8.71875 60.8896 8.65625 60.4313 8.71875L59.9938 8.8125L58.6188 8.71875C57.2646 8.71875 55.9938 8.94792 54.8063 9.40625C54.4729 11.3646 54.3792 13.3333 54.525 15.3125L54.3688 15.8125C54.6604 16.1042 54.8063 16.4271 54.8063 16.7812L56.8375 16.8438L58.4625 16.5H58.7125ZM82.3625 32.6875L81.2375 32.1875C80.5083 31.7292 79.7688 31.3021 79.0188 30.9062C78.6229 30.4896 78.3729 30.0312 78.2688 29.5312L78.6125 28.75L77.4875 28L79.1125 27.6562L79.55 27.75L80.1438 27.4688C80.6438 26.8438 81.05 26.1667 81.3625 25.4375C81.675 24.6875 82.0083 23.9479 82.3625 23.2188C82.7583 22.3021 83.1125 21.4375 83.425 20.625C83.7375 19.7917 83.9771 18.9479 84.1438 18.0938C84.4979 18.8229 84.6958 19.5625 84.7375 20.3125C84.4875 22.3125 84.2583 24.3021 84.05 26.2812C83.7792 27.5312 83.4979 28.8125 83.2063 30.125L83.4563 32.1875C83.1229 32.4583 82.7583 32.625 82.3625 32.6875ZM90.7063 32.0938C90.7063 31.4062 90.3938 30.8646 89.7688 30.4688L89.5188 30.0312C89.2479 29.3021 89.0813 28.5 89.0188 27.625C88.9563 26.7292 88.8104 25.8854 88.5813 25.0938C88.5188 23.5521 88.2375 22.1875 87.7375 21C87.2792 20.875 86.8833 20.6979 86.55 20.4688L86.8 20.0625L87.7375 20.1562C89.05 19.9688 90.3 19.625 91.4875 19.125C91.7167 18.8333 92.0813 18.75 92.5813 18.875C93.3313 18.5208 94.1333 18.2812 94.9875 18.1562C95.8417 18.0104 96.6646 17.8229 97.4563 17.5938L98.1438 17.75C98.7063 17.4583 99.3625 17.3438 100.113 17.4062C100.446 17.5729 100.81 17.6562 101.206 17.6562L102.425 17.8438C103.258 18.0104 104.019 18.375 104.706 18.9375C105.227 19.5625 105.769 20.1354 106.331 20.6562L106.519 21.6875L105.738 22.7812L105.144 23.125C104.623 24.1458 104.04 25.125 103.394 26.0625C102.748 27 102.217 28.0104 101.8 29.0938L101.456 29.3438L101.206 29.7812L99.675 30.2188L98.7375 29.875L98.05 30.2812L97.9875 29.9688C97.5292 29.9479 97.0708 29.9688 96.6125 30.0312C96.1542 29.8646 95.6438 29.8125 95.0813 29.875C94.3729 30.0625 93.6542 30.0938 92.925 29.9688L92.5188 31.0625L92.175 31.3125L91.925 31.75H91.3938L90.9875 32L90.7063 32.0938ZM95.425 27.2188C95.8625 26.9896 96.3417 26.875 96.8625 26.875L97.4563 27.0625L98.05 27.2188C98.4458 26.7188 98.5917 26.0938 98.4875 25.3438L98.3938 24.75L99.0813 20.2188C98.7479 19.9479 98.3208 19.8646 97.8 19.9688C96.8833 20.1354 95.9667 20.2917 95.05 20.4375C94.1542 20.5833 93.3104 20.8542 92.5188 21.25L92.175 21.9375C92.2792 22.8542 92.4042 23.7708 92.55 24.6875C92.6958 25.5833 92.8 26.5104 92.8625 27.4688L93.4563 27.5625C94.0813 27.3333 94.7375 27.2188 95.425 27.2188ZM79.2063 20.4688L78.8625 20.3125L78.7688 19.9688C78.9979 19.4062 79.1125 18.8125 79.1125 18.1875L78.7688 17.6562C77.8521 17.1562 76.9146 16.7083 75.9563 16.3125L75.8 15.625C76.5083 15.375 77.2167 15.3438 77.925 15.5312L78.9563 14.4375C79.6229 14.0208 80.3521 13.7708 81.1438 13.6875C81.9563 13.6042 82.7583 13.5417 83.55 13.5L84.05 14.3438L83.6438 15.0312L82.9563 15.625C82.7896 15.9583 82.6229 16.3021 82.4563 16.6562L81.925 17.0625C81.6333 18.0417 81.1229 18.9271 80.3938 19.7188L79.9563 20.1562L79.2063 20.4688ZM87.3 18.5312C85.8 17.9479 84.6958 16.9167 83.9875 15.4375H84.5813L84.925 15.625L85.3313 15.5312C85.6854 15.9271 86.1438 16.0729 86.7063 15.9688C87.3313 15.8021 87.925 15.5729 88.4875 15.2812L88.8313 15.375C89.7479 14.9583 90.6854 14.5938 91.6438 14.2812C92.6229 13.9688 93.5917 13.6771 94.55 13.4062L94.6438 12.9688L94.55 12.625L94.7375 11.9375L94.55 11.5312L94.6438 10.8438V9.3125H94.05C93.0708 9.58333 92.1646 10.0625 91.3313 10.75C90.9146 11.6667 90.5083 12.6042 90.1125 13.5625L89.0188 13.3125L88.675 13.4062L88.3313 12.875C87.9354 12.8333 87.6229 12.6667 87.3938 12.375L87.3 11.9375L86.8938 11.3438L86.3625 11L86.2688 9.8125L86.8 9.21875L87.7375 9.0625C87.9667 8.25 88.1646 7.46875 88.3313 6.71875C88.4979 5.94792 88.6125 5.13542 88.675 4.28125L88.2375 3.34375L87.6438 3L87.3 1.875L87.7375 1.78125L88.0813 1.96875C88.3104 1.73958 88.5917 1.65625 88.925 1.71875C89.675 2.05208 90.4875 2.26042 91.3625 2.34375C92.2375 2.42708 92.9875 2.8125 93.6125 3.5C93.8417 3.89583 93.925 4.375 93.8625 4.9375L93.2063 5.46875C92.8521 6.03125 92.6229 6.625 92.5188 7.25L92.8625 7.34375C93.5292 7.05208 94.2063 6.70833 94.8938 6.3125L94.9875 5.96875C94.8208 5.23958 94.7063 4.47917 94.6438 3.6875C94.5813 2.875 94.3521 2.15625 93.9563 1.53125L92.925 1.125V0.78125L93.2688 0.34375L93.8 0.5C95.2792 0.5625 96.7792 0.5625 98.3 0.5C98.7583 0.854167 98.9354 1.28125 98.8313 1.78125C98.3729 2.53125 98.1438 3.36458 98.1438 4.28125C99.0604 4.38542 99.9458 4.55208 100.8 4.78125L101.206 4.6875L101.738 4.875L102.081 4.78125C102.31 5.01042 102.592 5.125 102.925 5.125L103.269 5.03125C103.894 5.15625 104.456 5.4375 104.956 5.875L105.144 6.90625C104.581 7.42708 103.894 7.65625 103.081 7.59375L100.8 7.84375L100.456 7.78125L100.019 7.9375L99.5813 7.78125L98.4875 8.1875C98.2583 8.875 98.0708 9.59375 97.925 10.3438C97.7792 11.0729 97.6542 11.8021 97.55 12.5312L97.8938 12.7188C98.5813 12.5521 99.2792 12.3958 99.9875 12.25C100.696 12.1042 101.415 11.9479 102.144 11.7812C103.123 12.1146 104.123 12.3229 105.144 12.4062C106.165 12.4896 107.102 12.8229 107.956 13.4062C108.248 13.8646 108.363 14.4062 108.3 15.0312L107.519 15.7812C106.102 15.6979 104.685 15.5625 103.269 15.375L102.925 15.5312L102.581 15.7812L102.081 15.625L101.644 15.7188C101.081 15.4896 100.508 15.2292 99.925 14.9375C97.6542 15.1042 95.4875 15.5312 93.425 16.2188C91.3833 16.9062 89.3417 17.6771 87.3 18.5312ZM80.1438 11.3438L79.7063 11.0938L79.6125 10.5938L79.8938 9.125L79.0188 8.375L78.9563 7.9375C78.3729 7.77083 77.8521 7.48958 77.3938 7.09375L77.1438 6.84375L77.05 6.0625L77.675 5.71875L79.1125 5.96875L79.4563 5.46875C80.5396 4.71875 81.7896 4.34375 83.2063 4.34375H84.675L85.425 4.6875L85.6125 5.28125L85.2688 5.875L83.9875 6.90625C83.6333 7.59375 83.2375 8.25 82.8 8.875C82.3833 9.5 81.9771 10.125 81.5813 10.75C81.0813 10.8125 80.6021 11.0104 80.1438 11.3438ZM145.169 30.0312C143.106 29.0104 141.012 28.125 138.887 27.375C136.762 26.6042 134.502 26.2188 132.106 26.2188C130.565 26.3229 129.033 26.375 127.512 26.375L126.637 26.625C125.096 26.9167 123.596 27.1771 122.137 27.4062C120.7 27.6354 119.325 28.0625 118.012 28.6875L117.512 29.5312H116.731L114.95 28.25L113.669 27.2188C113.377 26.3854 113.21 25.4792 113.169 24.5L113.856 24.4375C114.294 24.7708 114.804 24.9688 115.387 25.0312L115.794 25.2812L116.575 25.125L117.356 25.1875C119.565 24.7292 121.794 24.2917 124.044 23.875C126.294 23.4583 128.585 23.1042 130.919 22.8125L132.887 22.7188L133.2 22.8125L133.637 22.7188L134.481 22.8125C135.794 22.9792 136.908 22.7292 137.825 22.0625L138.169 21.4688H138.606C139.565 21.5729 140.45 21.9062 141.262 22.4688C142.096 23.0312 143.002 23.4062 143.981 23.5938C145.127 24.3854 146.2 25.2604 147.2 26.2188L147.387 27.4062C147.158 28.1979 146.929 28.9896 146.7 29.7812C146.242 29.9479 145.731 30.0312 145.169 30.0312ZM123.825 13.5625C123.137 13.5 122.512 13.3021 121.95 12.9688C120.992 12.2396 120.106 11.4479 119.294 10.5938L119.044 9.75C118.815 9.6875 118.731 9.52083 118.794 9.25C119.419 9.02083 120.075 8.84375 120.762 8.71875C121.325 9.07292 121.95 9.21875 122.637 9.15625C123.825 8.63542 125.033 8.16667 126.262 7.75C127.492 7.33333 128.669 6.78125 129.794 6.09375L129.887 5.75L130.137 5.0625L130.919 4.21875C131.377 4.05208 131.887 4 132.45 4.0625C133.929 4.125 135.252 4.5 136.419 5.1875C137.585 5.85417 138.762 6.55208 139.95 7.28125C140.471 7.84375 140.762 8.52083 140.825 9.3125L140.731 10L140.825 10.5938C140.137 10.9896 139.398 11.1875 138.606 11.1875L136.637 10.75C134.804 10.9375 132.992 11.1875 131.2 11.5C129.408 11.7917 127.637 12.1458 125.887 12.5625L125.356 13.0625C124.898 13.3333 124.387 13.5 123.825 13.5625ZM170.569 32.7812L170.131 32.5C169.902 32.2292 169.819 31.8646 169.881 31.4062C169.86 27.5104 169.86 23.6146 169.881 19.7188C169.59 19.1562 169.277 18.6146 168.944 18.0938L169.1 17.5938C168.808 17.3646 168.725 17.0729 168.85 16.7188L169.694 17.0625L169.631 16.6562L169.694 14.5938C169.527 13.7396 169.475 12.8646 169.538 11.9688C169.6 11.0521 169.402 10.25 168.944 9.5625L169.631 9.3125C170.944 9.64583 172.256 10.0417 173.569 10.5C173.84 10.2083 174.006 9.89583 174.069 9.5625L173.819 9.3125L174.163 8.78125C174.663 8.05208 175.006 7.3125 175.194 6.5625H174.663C173.579 6.91667 172.496 7.29167 171.413 7.6875L170.725 7.4375L170.288 7.5L169.631 6.3125C169.173 6.20833 168.735 6.01042 168.319 5.71875L168.163 6.40625C167.767 8.21875 167.267 9.96875 166.663 11.6562C166.058 13.3229 165.36 14.9271 164.569 16.4688L163.194 16.9688L162.788 16.0312H162.163C160.975 16.5521 159.777 17.0417 158.569 17.5C158.256 19.0833 158.173 20.6771 158.319 22.2812L158.506 22.7812L158.319 23.8125V24.4062L158.663 24.5C159.642 24.0417 160.61 23.5521 161.569 23.0312C162.381 22.5938 163.152 22.1979 163.881 21.8438C163.485 21.0521 163.11 20.3438 162.756 19.7188C162.423 19.0938 162.027 18.5 161.569 17.9375L162.85 17.8438C164.225 17.8438 165.371 18.3542 166.288 19.375C166.913 20.4583 167.485 21.5625 168.006 22.6875C168.215 22.8125 168.298 23.0208 168.256 23.3125L168.163 23.7188L168.319 24.5L167.131 24.75L165.756 23.9688L165.163 23.375C163.683 24.5208 162.173 25.625 160.631 26.6875C159.09 27.7292 157.579 28.7917 156.1 29.875L155.913 30.2812L154.819 30.375L154.131 29.9688L153.881 29.625L152.506 28.9375L152.069 28.25L152.413 27.5625L152.319 27.125L152.756 27.0625L153.288 26.4688L153.444 26.0312L154.131 25.7812L155.163 26.1875C155.454 25.5208 155.6 24.7812 155.6 23.9688C155.788 20.0729 155.756 16.1771 155.506 12.2812C155.506 11.0312 155.079 9.95833 154.225 9.0625L154.569 8.875L153.1 7.25V6.90625C155.288 7.19792 157.423 6.83333 159.506 5.8125L159.6 5.21875C159.142 4.63542 158.892 3.94792 158.85 3.15625C158.621 3.05208 158.527 2.82292 158.569 2.46875C158.069 1.80208 157.444 1.14583 156.694 0.5H157.569C158.527 0.625 159.506 0.75 160.506 0.875C161.506 0.979167 162.371 1.34375 163.1 1.96875C163.288 2.42708 163.35 2.9375 163.288 3.5L162.85 3.9375L162.506 4.78125L162.944 4.875C163.465 4.52083 164.038 4.375 164.663 4.4375C165.808 4.66667 166.923 5.01042 168.006 5.46875L167.725 4.6875L168.256 4.4375L168.319 4.09375L168.256 3.59375L168.413 3.15625C169.267 3.67708 170.1 3.98958 170.913 4.09375C172.163 3.80208 173.413 3.5 174.663 3.1875C175.913 2.875 177.173 2.55208 178.444 2.21875C179.756 2.55208 181.006 3.01042 182.194 3.59375L182.381 4L181.756 5.03125C181.027 5.26042 180.319 5.57292 179.631 5.96875C178.944 6.86458 178.204 7.6875 177.413 8.4375C176.788 9.0625 176.267 9.75 175.85 10.5L175.35 10.8438L175.1 11.4375C176.413 11.7708 177.725 12.1562 179.038 12.5938C180.35 13.0104 181.569 13.625 182.694 14.4375C183.381 15.1667 183.84 16.0104 184.069 16.9688C184.027 18.1771 183.871 19.3229 183.6 20.4062C183.35 21.4896 182.85 22.4792 182.1 23.375L181.506 23.8125L180.319 24.9062C179.298 25.1354 178.267 25.4271 177.225 25.7812C176.267 25.1979 175.298 24.5938 174.319 23.9688L173.569 23.375L173.381 25.25L173.475 25.5938C173.475 26.8021 173.36 27.9375 173.131 29C172.902 30.0833 172.558 31.1146 172.1 32.0938C171.642 32.4896 171.131 32.7188 170.569 32.7812ZM178.6 20.4688C179.225 19.5104 179.485 18.375 179.381 17.0625C179.319 16.1667 178.975 15.375 178.35 14.6875C177.329 14.0625 176.277 13.5208 175.194 13.0625L174.413 12.2812C173.954 12.1146 173.527 11.8854 173.131 11.5938C172.965 12.4479 172.86 13.3542 172.819 14.3125C172.798 15.25 172.788 16.1667 172.788 17.0625V18.4375C173.017 19.125 173.215 19.8021 173.381 20.4688C174.006 21.0521 174.777 21.2812 175.694 21.1562C176.777 21.1562 177.746 20.9271 178.6 20.4688ZM159.256 15.1875C160.485 14.625 161.746 14.1979 163.038 13.9062C163.267 13.2812 163.402 12.6042 163.444 11.875L163.1 11.7812C162.371 12.0104 161.6 12.25 160.788 12.5C159.996 12.75 159.256 13.0833 158.569 13.5L158.663 15.2812L159.256 15.1875ZM158.756 10.9375C159.485 10.7083 160.235 10.5 161.006 10.3125C161.777 10.1042 162.538 9.82292 163.288 9.46875L163.725 7.25H163.194C162.173 7.54167 161.163 7.8125 160.163 8.0625C159.163 8.3125 158.204 8.66667 157.288 9.125L157.225 9.46875L158.069 9.90625L158.319 11L158.756 10.9375Z" fill="#222222"/>
</g>
<defs>
<clipPath id="clip0_396_10">
<rect width="185" height="35" fill="white"/>
</clipPath>
</defs>
</svg>
