<svg width="250" height="61" viewBox="0 0 250 61" fill="none" xmlns="http://www.w3.org/2000/svg">
<path d="M60.9961 39.2576C60.8146 39.2157 60.6236 39.1733 60.4293 39.1245C60.4139 39.1189 60.4006 39.1174 60.3846 39.1118C61.4221 36.8141 62.288 34.2607 62.9286 31.4204C65.1047 21.7969 62.0628 13.1206 54.587 7.61786C49.8903 4.16183 43.9308 2.32122 38.1724 2.32122C38.0836 2.32122 37.9978 2.32301 37.9111 2.32349C37.8321 2.31932 37.7499 2.32349 37.6746 2.30859C37.686 2.31372 37.6968 2.31979 37.7089 2.32539C37.6944 2.32539 37.68 2.32539 37.6657 2.32587C43.2422 4.87524 46.9109 9.35469 48.0158 14.9383C51.1102 17.2412 54.3962 21.6219 52.6213 29.4679C52.0669 31.9048 51.3111 34.0594 50.3977 35.9625C47.8437 34.993 45.1698 33.8487 42.6302 32.5516C42.2712 32.3673 41.9127 32.1835 41.5635 31.995C41.2093 31.8065 40.8603 31.6134 40.5111 31.4161C37.3403 29.6248 34.4943 27.5826 32.4953 25.3292C32.2274 25.0239 31.9735 24.7189 31.7394 24.4091C31.4954 24.095 31.2753 23.7762 31.07 23.4532C29.9744 21.7252 29.4056 19.8846 29.5634 17.9546C29.6655 16.7437 30.0271 15.7017 30.6425 14.835C30.6555 14.8179 30.6642 14.7974 30.6777 14.7801C30.6817 14.7746 30.6831 14.7684 30.6871 14.7633C30.5675 14.7047 30.4386 14.6512 30.3091 14.6019C29.3 14.2203 28.0806 14.0183 26.7797 14.0183C26.392 14.0183 25.9953 14.0366 25.598 14.0719C23.3168 14.2697 21.0207 15.0417 19.1844 16.209C19.1364 16.5273 19.1031 16.8503 19.0743 17.1784C18.7871 20.675 19.5285 25.0375 23.0059 29.6342C23.2306 29.9302 23.4652 30.2266 23.7135 30.5226C23.9576 30.8191 24.2159 31.1151 24.4836 31.4162C26.4543 33.5881 29.0659 35.7922 32.5001 37.9601C32.8492 38.1848 33.2122 38.4045 33.5806 38.6293C33.9441 38.8444 34.3126 39.0599 34.6904 39.2753C36.0248 40.0385 37.4689 40.7971 39.0282 41.5468C40.5407 42.2734 42.0493 42.9263 43.5311 43.534C43.8087 43.6513 44.073 43.7691 44.3542 43.8859C42.2759 45.6562 40.0349 46.9426 37.823 47.8664C36.919 48.2522 36.0149 48.5758 35.1353 48.8452C35.1264 48.8479 35.1169 48.8502 35.108 48.8535C33.4164 49.3724 31.583 49.3724 29.8915 48.8535C29.8826 48.8502 29.8736 48.8479 29.8642 48.8452C28.9844 48.5757 28.0805 48.2522 27.1764 47.8664C25.18 47.0329 23.1665 45.8825 21.2637 44.369C21.0593 44.2039 20.8457 44.0493 20.6474 43.8766C22.3855 43.1823 24.1763 42.4069 25.9714 41.547C27.2693 40.9229 28.4688 40.2913 29.6104 39.6574C29.8371 39.5355 30.0771 39.4122 30.2972 39.2907C30.2948 39.2892 30.2928 39.2875 30.2904 39.2856C30.2962 39.2823 30.3033 39.2786 30.3091 39.2753C29.9051 39.0087 29.5131 38.7419 29.1314 38.4743C29.1007 38.453 29.0693 38.4316 29.0391 38.4098C28.332 37.9127 27.6665 37.4137 27.0327 36.9139C26.9211 36.826 26.809 36.7376 26.6994 36.6492C26.1847 36.235 25.6987 35.8199 25.232 35.4051C25.0134 35.2101 24.7966 35.0152 24.5864 34.8183C24.2685 34.5214 23.9625 34.2249 23.6675 33.9279C23.2806 33.537 22.9018 33.1447 22.5491 32.7477C22.4906 32.6825 22.4271 32.6169 22.3696 32.5517C19.8301 33.8487 17.1567 34.9932 14.6021 35.9626C13.6887 34.0596 12.9335 31.9049 12.378 29.468C10.6036 21.622 13.8895 17.2413 16.984 14.9385C17.0034 14.925 17.0178 14.9115 17.0366 14.8985C17.4819 14.5704 17.9456 14.2697 18.4286 13.9962C18.9072 13.722 19.4045 13.4708 19.9114 13.2464C21.6426 12.4837 23.5221 11.9987 25.3733 11.8371C25.8469 11.7925 26.3156 11.7743 26.7797 11.7743C28.3577 11.7743 29.8742 12.0168 31.2087 12.5237C31.6773 12.6987 32.1078 12.9052 32.5001 13.1431C32.873 13.3632 33.2122 13.6099 33.5137 13.8839C33.8152 14.153 34.083 14.4447 34.3077 14.7634C34.9584 15.6431 35.3312 16.7116 35.4364 17.9547C35.5946 19.8847 35.0253 21.7207 33.9254 23.4487C35.8287 25.7961 38.8561 27.8969 41.9938 29.6342C45.471 25.0375 46.2119 20.675 45.9254 17.1784C45.8966 16.8503 45.8628 16.5273 45.8153 16.209C45.7435 15.706 45.6476 15.2122 45.5282 14.7277C45.4086 14.2204 45.2603 13.7267 45.0883 13.2463C43.5672 8.98226 40.1762 5.64727 35.3743 3.82013C34.4465 3.4701 33.485 3.17844 32.5001 2.95398C31.663 2.75621 30.8115 2.60871 29.9456 2.50494C29.0847 2.40164 28.2143 2.34338 27.3341 2.32575C27.1671 2.3211 26.9995 2.3211 26.8273 2.3211C21.0689 2.3211 15.1046 4.16171 10.4127 7.61774C2.93208 13.1207 -0.104888 21.797 2.07121 31.4204C2.68859 34.1555 3.51772 36.6184 4.50465 38.8489C4.54236 38.9359 4.57549 39.0271 4.6137 39.1141C4.39953 39.1677 4.19908 39.2128 3.99874 39.2574C1.18203 39.904 -0.540211 42.4758 0.153588 45.0029C0.741762 47.1395 2.86569 48.5576 5.20886 48.5576C5.63987 48.5576 6.07976 48.5082 6.51965 48.4096C6.65854 48.3779 7.95917 48.0773 9.99195 47.4984C11.5942 49.3162 13.3204 50.8603 15.1049 52.1756C15.4489 52.427 15.7937 52.6695 16.1427 52.9073C16.5062 53.1539 16.8698 53.3965 17.2382 53.6253C17.619 53.8646 18.0014 54.0931 18.3843 54.3137C18.5122 54.3877 18.6401 54.4551 18.7686 54.5264C19.0235 54.6692 19.2788 54.813 19.5343 54.9485C19.687 55.0289 19.8397 55.1035 19.9929 55.1817C20.2231 55.2994 20.4528 55.418 20.6823 55.5298C20.8473 55.6098 21.0116 55.684 21.1761 55.7612C21.3928 55.8627 21.6101 55.965 21.8258 56.0614C21.9954 56.1368 22.1635 56.207 22.3322 56.2787C22.5424 56.369 22.7531 56.4602 22.963 56.5458C23.133 56.6152 23.3016 56.6798 23.4707 56.7463C23.6761 56.8269 23.8813 56.9078 24.0856 56.9841C24.2558 57.0474 24.4244 57.1074 24.5935 57.168C24.7938 57.2397 24.9941 57.3118 25.1929 57.3793C25.3617 57.4365 25.5277 57.491 25.6949 57.5454C25.8219 57.5872 25.9507 57.6319 26.0768 57.6719C26.1253 57.6873 26.1745 57.6998 26.223 57.7152C26.301 57.7394 26.3802 57.7669 26.4571 57.7901C30.3828 58.9922 34.6173 58.9922 38.5428 57.7901C38.6203 57.7669 38.6995 57.7394 38.7774 57.7147C38.826 57.6998 38.8752 57.6873 38.9237 57.6719C39.0492 57.6319 39.1776 57.5872 39.3042 57.5459C39.4717 57.4908 39.6388 57.4365 39.8079 57.3793C40.0058 57.3119 40.2056 57.2402 40.4055 57.1684C40.5751 57.1074 40.7442 57.0474 40.9148 56.9837C41.1187 56.9078 41.3228 56.8273 41.5277 56.7468C41.6979 56.6803 41.867 56.615 42.0376 56.5458C42.2468 56.4602 42.457 56.3694 42.6674 56.2797C42.836 56.207 43.0046 56.1368 43.1742 56.0614C43.3904 55.965 43.6071 55.8622 43.8243 55.7607C43.9885 55.684 44.1526 55.6098 44.3178 55.5298C44.5473 55.4185 44.777 55.2994 45.0071 55.1821C45.1599 55.1035 45.3126 55.0289 45.4658 54.9485C45.7202 54.8135 45.9741 54.6707 46.2286 54.5286C46.3579 54.4561 46.4869 54.3882 46.6163 54.3137C46.9992 54.0931 47.381 53.8641 47.7624 53.6253C48.1303 53.3963 48.4939 53.1539 48.8574 52.9073C49.2065 52.6695 49.5507 52.427 49.8952 52.1756C51.679 50.8604 53.4009 49.3162 55.0036 47.4984C57.0408 48.0773 58.3371 48.3779 58.4804 48.4096C58.9203 48.5083 59.3556 48.5576 59.7861 48.5576C62.1348 48.5576 64.2582 47.1395 64.8464 45.0029C65.5402 42.4758 63.8179 39.904 60.9961 39.2576Z" fill="white"/>
<path d="M96.472 11.184H90.36V30H85.912V11.184H79.832V7.21599H96.472V11.184ZM114.945 30H106.881C104.321 30 102.519 29.5627 101.473 28.688C100.449 27.792 99.9373 26.224 99.9373 23.984V7.21599H114.945V11.184H104.385V16.528H111.777L111.457 20.496H104.385V23.664C104.385 24.56 104.588 25.1787 104.993 25.52C105.399 25.8613 106.135 26.032 107.201 26.032H114.945V30ZM134.128 11.184H128.016V30H123.568V11.184H117.488V7.21599H134.128V11.184ZM154.298 17.552V19.28C154.298 23.0987 153.572 25.872 152.122 27.6C150.692 29.328 148.388 30.192 145.21 30.192C142.031 30.192 139.727 29.328 138.298 27.6C136.89 25.872 136.186 23.0667 136.186 19.184V17.52C136.186 13.9787 136.9 11.344 138.33 9.61599C139.78 7.88799 142.063 7.02399 145.178 7.02399C148.314 7.02399 150.618 7.89866 152.09 9.64799C153.562 11.3973 154.298 14.032 154.298 17.552ZM149.85 19.184V18C149.85 15.952 149.594 14.32 149.082 13.104C148.484 11.696 147.204 10.992 145.242 10.992C143.258 10.992 141.967 11.696 141.37 13.104C140.879 14.256 140.634 15.888 140.634 18V19.184C140.634 21.936 141.018 23.792 141.786 24.752C142.084 25.1573 142.522 25.5093 143.098 25.808C143.695 26.0853 144.399 26.224 145.21 26.224C146.042 26.224 146.746 26.0853 147.322 25.808C147.898 25.5307 148.346 25.1893 148.666 24.784C148.986 24.3787 149.231 23.8453 149.402 23.184C149.7 22.1387 149.85 20.8053 149.85 19.184ZM173.003 11.184H166.891V30H162.443V11.184H156.363V7.21599H173.003V11.184ZM191.477 30H183.413C180.853 30 179.05 29.5627 178.005 28.688C176.981 27.792 176.469 26.224 176.469 23.984V7.21599H191.477V11.184H180.917V16.528H188.309L187.989 20.496H180.917V23.664C180.917 24.56 181.119 25.1787 181.525 25.52C181.93 25.8613 182.666 26.032 183.733 26.032H191.477V30ZM197.388 27.32C197.601 27.52 197.708 27.9533 197.708 28.62C197.708 29.2867 197.601 29.7267 197.388 29.94C197.188 30.1533 196.754 30.26 196.088 30.26C195.421 30.26 194.981 30.1533 194.768 29.94C194.554 29.7267 194.448 29.2867 194.448 28.62C194.448 27.9533 194.554 27.52 194.768 27.32C194.981 27.1067 195.421 27 196.088 27C196.754 27 197.188 27.1067 197.388 27.32ZM206.386 25.82L208.746 25.8C208.733 25.9067 208.719 26.1 208.706 26.38C208.693 26.66 208.679 26.8533 208.666 26.96C208.666 27.0533 208.653 27.2067 208.626 27.42C208.599 27.6333 208.566 27.7933 208.526 27.9C208.499 27.9933 208.459 28.12 208.406 28.28C208.166 28.9733 207.513 29.52 206.446 29.92C205.766 30.16 205.053 30.28 204.306 30.28C203.573 30.28 202.906 30.16 202.306 29.92C201.706 29.68 201.233 29.3733 200.886 29C200.099 28.1733 199.706 26.6267 199.706 24.36C199.706 22.08 200.099 20.5267 200.886 19.7C201.233 19.3267 201.706 19.02 202.306 18.78C202.906 18.54 203.573 18.42 204.306 18.42C205.746 18.42 206.839 18.78 207.586 19.5C208.333 20.22 208.706 21.22 208.706 22.5H206.346C206.346 21.9133 206.199 21.48 205.906 21.2C205.613 20.9067 205.066 20.76 204.266 20.76C203.479 20.76 202.953 21.0067 202.686 21.5C202.433 21.9933 202.306 22.7333 202.306 23.72V24.76C202.306 26.3467 202.613 27.32 203.226 27.68C203.506 27.8533 203.873 27.94 204.326 27.94C204.779 27.94 205.146 27.9 205.426 27.82C205.719 27.7267 205.926 27.5733 206.046 27.36C206.179 27.1467 206.266 26.94 206.306 26.74C206.346 26.5267 206.373 26.22 206.386 25.82ZM217.097 24.84V23.8C217.097 22.8133 216.95 22.06 216.657 21.54C216.377 21.02 215.784 20.76 214.877 20.76C213.41 20.76 212.677 21.7467 212.677 23.72V24.76C212.677 26.88 213.41 27.94 214.877 27.94C215.824 27.94 216.444 27.5867 216.737 26.88C216.977 26.32 217.097 25.64 217.097 24.84ZM219.697 24.24C219.697 26.7067 219.23 28.36 218.297 29.2C217.51 29.92 216.37 30.28 214.877 30.28C212.97 30.28 211.684 29.72 211.017 28.6C210.39 27.5733 210.077 26.12 210.077 24.24C210.077 22.48 210.39 21.1 211.017 20.1C211.71 18.98 212.97 18.42 214.797 18.42C216.637 18.42 217.91 18.9133 218.617 19.9C219.337 20.8733 219.697 22.32 219.697 24.24ZM224.516 27.32C224.73 27.52 224.836 27.9533 224.836 28.62C224.836 29.2867 224.73 29.7267 224.516 29.94C224.316 30.1533 223.883 30.26 223.216 30.26C222.55 30.26 222.11 30.1533 221.896 29.94C221.683 29.7267 221.576 29.2867 221.576 28.62C221.576 27.9533 221.683 27.52 221.896 27.32C222.11 27.1067 222.55 27 223.216 27C223.883 27 224.316 27.1067 224.516 27.32ZM230.175 30L227.575 30.02V14.96H230.175V30ZM237.848 30H236.228C235.241 30 234.488 29.7067 233.968 29.12C233.461 28.5333 233.208 27.8333 233.208 27.02V21.02H232.108V19.04H233.208V16.8H235.808V19.04H237.648V21.02H235.808V26.86C235.808 27.4867 236.108 27.8 236.708 27.8H237.848V30ZM248.299 30H246.559L245.759 28.62L242.979 30.12C241.432 30.12 240.392 29.56 239.859 28.44C239.592 27.8933 239.406 27.3067 239.299 26.68C239.206 26.04 239.159 25.38 239.159 24.7C239.159 24.0067 239.166 23.5 239.179 23.18C239.192 22.8467 239.226 22.4667 239.279 22.04C239.332 21.6 239.406 21.2333 239.499 20.94C239.606 20.6467 239.752 20.3467 239.939 20.04C240.126 19.72 240.352 19.4667 240.619 19.28C241.219 18.8667 241.999 18.66 242.959 18.66H245.699V14.96H248.299V30ZM245.699 26.36V21H243.719C242.986 21 242.472 21.28 242.179 21.84C241.899 22.4 241.759 23.24 241.759 24.36C241.759 25.4667 241.892 26.2467 242.159 26.7C242.439 27.1533 242.959 27.38 243.719 27.38L245.699 26.36ZM91.44 54H88.22L85.44 48.72H83.44V54H80.66V42.82C80.66 41.7533 80.9067 40.98 81.4 40.5C81.8933 40.0067 82.72 39.76 83.88 39.76H86.24C87.6533 39.76 88.7733 40.1933 89.6 41.06C90.44 41.9133 90.86 43 90.86 44.32C90.86 45.28 90.6067 46.1133 90.1 46.82C89.6067 47.5133 88.9933 47.9933 88.26 48.26L91.44 54ZM86.06 46.4C86.6467 46.4 87.1267 46.2 87.5 45.8C87.8867 45.3867 88.08 44.88 88.08 44.28C88.08 43.6667 87.8933 43.1733 87.52 42.8C87.16 42.4267 86.6733 42.24 86.06 42.24H84.68C83.8533 42.24 83.44 42.66 83.44 43.5V46.4H86.06ZM103.126 54H98.0859C96.4859 54 95.3593 53.7267 94.7059 53.18C94.0659 52.62 93.7459 51.64 93.7459 50.24V39.76H103.126V42.24H96.5259V45.58H101.146L100.946 48.06H96.5259V50.04C96.5259 50.6 96.6526 50.9867 96.9059 51.2C97.1593 51.4133 97.6193 51.52 98.2859 51.52H103.126V54ZM113.055 48.48H115.635C115.635 50.2933 115.182 51.6867 114.275 52.66C113.369 53.6333 112.089 54.12 110.435 54.12C106.795 54.12 104.975 51.98 104.975 47.7V46.5C104.975 43.1267 105.909 41.0133 107.775 40.16C108.509 39.8133 109.395 39.64 110.435 39.64C111.955 39.64 113.189 40.06 114.135 40.9C115.095 41.7267 115.575 42.9267 115.575 44.5H112.975C112.829 43.7133 112.569 43.12 112.195 42.72C111.822 42.32 111.235 42.12 110.435 42.12C109.502 42.12 108.809 42.4133 108.355 43C108.035 43.4133 107.849 44.12 107.795 45.12C107.769 45.44 107.755 45.8733 107.755 46.42V47.66C107.755 49.1933 107.969 50.24 108.395 50.8C108.835 51.36 109.515 51.64 110.435 51.64C111.369 51.64 112.009 51.3867 112.355 50.88C112.715 50.36 112.949 49.56 113.055 48.48ZM128.784 54H125.564L122.784 48.72H120.784V54H118.004V42.82C118.004 41.7533 118.25 40.98 118.744 40.5C119.237 40.0067 120.064 39.76 121.224 39.76H123.584C124.997 39.76 126.117 40.1933 126.944 41.06C127.784 41.9133 128.204 43 128.204 44.32C128.204 45.28 127.95 46.1133 127.444 46.82C126.95 47.5133 126.337 47.9933 125.604 48.26L128.784 54ZM123.404 46.4C123.99 46.4 124.47 46.2 124.844 45.8C125.23 45.3867 125.424 44.88 125.424 44.28C125.424 43.6667 125.237 43.1733 124.864 42.8C124.504 42.4267 124.017 42.24 123.404 42.24H122.024C121.197 42.24 120.784 42.66 120.784 43.5V46.4H123.404ZM141.55 39.76V49.12C141.55 50.6667 141.023 51.8867 139.97 52.78C138.93 53.6733 137.643 54.12 136.11 54.12C134.576 54.12 133.283 53.6733 132.23 52.78C131.19 51.8867 130.67 50.6667 130.67 49.12V39.76H133.45V49.02C133.45 49.9 133.69 50.56 134.17 51C134.663 51.4267 135.31 51.64 136.11 51.64C136.91 51.64 137.556 51.4267 138.05 51C138.543 50.56 138.79 49.9 138.79 49.02V39.76H141.55ZM147.229 54H144.449V39.76H147.229V54ZM159.803 42.24H155.983V54H153.203V42.24H149.403V39.76H159.803V42.24ZM164.749 54H161.969V39.76H164.749V54ZM179.162 39.76V52.56C179.162 53 179.029 53.38 178.762 53.7C178.496 54.0067 178.182 54.16 177.822 54.16C176.902 54.16 176.149 53.6267 175.562 52.56L170.642 44.86V54H167.862V39.76H170.542L176.382 49.08V39.76H179.162ZM181.167 47.3V45.54C181.167 43.6867 181.653 42.24 182.627 41.2C183.6 40.16 184.947 39.64 186.667 39.64C188.387 39.64 189.767 40.16 190.807 41.2C191.54 41.9333 191.907 43.0333 191.907 44.5H189.307C189.307 42.9133 188.46 42.12 186.767 42.12C186.26 42.12 185.827 42.22 185.467 42.42C185.12 42.6067 184.86 42.8267 184.687 43.08C184.513 43.3333 184.38 43.7067 184.287 44.2C184.193 44.6933 184.14 45.1067 184.127 45.44C184.113 45.7733 184.107 46.22 184.107 46.78C184.107 47.34 184.107 47.72 184.107 47.92C184.12 48.1067 184.14 48.42 184.167 48.86C184.207 49.2867 184.26 49.5933 184.327 49.78C184.407 49.9667 184.513 50.2067 184.647 50.5C184.793 50.7933 184.973 51 185.187 51.12C185.733 51.4667 186.353 51.64 187.047 51.64C188.207 51.64 189.027 51.1467 189.507 50.16V49.2H187.787V46.88H191.887V51.18C191.473 52.1533 190.82 52.8867 189.927 53.38C189.033 53.8733 188.02 54.12 186.887 54.12C184.873 54.12 183.413 53.56 182.507 52.44C181.613 51.3067 181.167 49.5933 181.167 47.3Z" fill="white"/>
</svg>
