<svg width="250" height="61" viewBox="0 0 250 61" fill="none" xmlns="http://www.w3.org/2000/svg">
<path d="M60.9961 39.2576C60.8146 39.2157 60.6236 39.1733 60.4293 39.1245C60.4139 39.1189 60.4006 39.1174 60.3846 39.1118C61.4221 36.8141 62.288 34.2607 62.9286 31.4204C65.1047 21.7969 62.0628 13.1206 54.587 7.61786C49.8903 4.16183 43.9308 2.32122 38.1724 2.32122C38.0836 2.32122 37.9978 2.32301 37.9111 2.32349C37.8321 2.31932 37.7499 2.32349 37.6746 2.30859C37.686 2.31372 37.6968 2.31979 37.7089 2.32539C37.6944 2.32539 37.68 2.32539 37.6657 2.32587C43.2422 4.87524 46.9109 9.35469 48.0158 14.9383C51.1102 17.2412 54.3962 21.6219 52.6213 29.4679C52.0669 31.9048 51.3111 34.0594 50.3977 35.9625C47.8437 34.993 45.1698 33.8487 42.6302 32.5516C42.2712 32.3673 41.9127 32.1835 41.5635 31.995C41.2093 31.8065 40.8603 31.6134 40.5111 31.4161C37.3403 29.6248 34.4943 27.5826 32.4953 25.3292C32.2274 25.0239 31.9735 24.7189 31.7394 24.4091C31.4954 24.095 31.2753 23.7762 31.07 23.4532C29.9744 21.7252 29.4056 19.8846 29.5634 17.9546C29.6655 16.7437 30.0271 15.7017 30.6425 14.835C30.6555 14.8179 30.6642 14.7974 30.6777 14.7801C30.6817 14.7746 30.6831 14.7684 30.6871 14.7633C30.5675 14.7047 30.4386 14.6512 30.3091 14.6019C29.3 14.2203 28.0806 14.0183 26.7797 14.0183C26.392 14.0183 25.9953 14.0366 25.598 14.0719C23.3168 14.2697 21.0207 15.0417 19.1844 16.209C19.1364 16.5273 19.1031 16.8503 19.0743 17.1784C18.7871 20.675 19.5285 25.0375 23.0059 29.6342C23.2306 29.9302 23.4652 30.2266 23.7135 30.5226C23.9576 30.8191 24.2159 31.1151 24.4836 31.4162C26.4543 33.5881 29.0659 35.7922 32.5001 37.9601C32.8492 38.1848 33.2122 38.4045 33.5806 38.6293C33.9441 38.8444 34.3126 39.0599 34.6904 39.2753C36.0248 40.0385 37.4689 40.7971 39.0282 41.5468C40.5407 42.2734 42.0493 42.9263 43.5311 43.534C43.8087 43.6513 44.073 43.7691 44.3542 43.8859C42.2759 45.6562 40.0349 46.9426 37.823 47.8664C36.919 48.2522 36.0149 48.5758 35.1353 48.8452C35.1264 48.8479 35.1169 48.8502 35.108 48.8535C33.4164 49.3724 31.583 49.3724 29.8915 48.8535C29.8826 48.8502 29.8736 48.8479 29.8642 48.8452C28.9844 48.5757 28.0805 48.2522 27.1764 47.8664C25.18 47.0329 23.1665 45.8825 21.2637 44.369C21.0593 44.2039 20.8457 44.0493 20.6474 43.8766C22.3855 43.1823 24.1763 42.4069 25.9714 41.547C27.2693 40.9229 28.4688 40.2913 29.6104 39.6574C29.8371 39.5355 30.0771 39.4122 30.2972 39.2907C30.2948 39.2892 30.2928 39.2875 30.2904 39.2856C30.2962 39.2823 30.3033 39.2786 30.3091 39.2753C29.9051 39.0087 29.5131 38.7419 29.1314 38.4743C29.1007 38.453 29.0693 38.4316 29.0391 38.4098C28.332 37.9127 27.6665 37.4137 27.0327 36.9139C26.9211 36.826 26.809 36.7376 26.6994 36.6492C26.1847 36.235 25.6987 35.8199 25.232 35.4051C25.0134 35.2101 24.7966 35.0152 24.5864 34.8183C24.2685 34.5214 23.9625 34.2249 23.6675 33.9279C23.2806 33.537 22.9018 33.1447 22.5491 32.7477C22.4906 32.6825 22.4271 32.6169 22.3696 32.5517C19.8301 33.8487 17.1567 34.9932 14.6021 35.9626C13.6887 34.0596 12.9335 31.9049 12.378 29.468C10.6036 21.622 13.8895 17.2413 16.984 14.9385C17.0034 14.925 17.0178 14.9115 17.0366 14.8985C17.4819 14.5704 17.9456 14.2697 18.4286 13.9962C18.9072 13.722 19.4045 13.4708 19.9114 13.2464C21.6426 12.4837 23.5221 11.9987 25.3733 11.8371C25.8469 11.7925 26.3156 11.7743 26.7797 11.7743C28.3577 11.7743 29.8742 12.0168 31.2087 12.5237C31.6773 12.6987 32.1078 12.9052 32.5001 13.1431C32.873 13.3632 33.2122 13.6099 33.5137 13.8839C33.8152 14.153 34.083 14.4447 34.3077 14.7634C34.9584 15.6431 35.3312 16.7116 35.4364 17.9547C35.5946 19.8847 35.0253 21.7207 33.9254 23.4487C35.8287 25.7961 38.8561 27.8969 41.9938 29.6342C45.471 25.0375 46.2119 20.675 45.9254 17.1784C45.8966 16.8503 45.8628 16.5273 45.8153 16.209C45.7435 15.706 45.6476 15.2122 45.5282 14.7277C45.4086 14.2204 45.2603 13.7267 45.0883 13.2463C43.5672 8.98226 40.1762 5.64727 35.3743 3.82013C34.4465 3.4701 33.485 3.17844 32.5001 2.95398C31.663 2.75621 30.8115 2.60871 29.9456 2.50494C29.0847 2.40164 28.2143 2.34338 27.3341 2.32575C27.1671 2.3211 26.9995 2.3211 26.8273 2.3211C21.0689 2.3211 15.1046 4.16171 10.4127 7.61774C2.93208 13.1207 -0.104888 21.797 2.07121 31.4204C2.68859 34.1555 3.51772 36.6184 4.50465 38.8489C4.54236 38.9359 4.57549 39.0271 4.6137 39.1141C4.39953 39.1677 4.19908 39.2128 3.99874 39.2574C1.18203 39.904 -0.540211 42.4758 0.153588 45.0029C0.741762 47.1395 2.86569 48.5576 5.20886 48.5576C5.63987 48.5576 6.07976 48.5082 6.51965 48.4096C6.65854 48.3779 7.95917 48.0773 9.99195 47.4984C11.5942 49.3162 13.3204 50.8603 15.1049 52.1756C15.4489 52.427 15.7937 52.6695 16.1427 52.9073C16.5062 53.1539 16.8698 53.3965 17.2382 53.6253C17.619 53.8646 18.0014 54.0931 18.3843 54.3137C18.5122 54.3877 18.6401 54.4551 18.7686 54.5264C19.0235 54.6692 19.2788 54.813 19.5343 54.9485C19.687 55.0289 19.8397 55.1035 19.9929 55.1817C20.2231 55.2994 20.4528 55.418 20.6823 55.5298C20.8473 55.6098 21.0116 55.684 21.1761 55.7612C21.3928 55.8627 21.6101 55.965 21.8258 56.0614C21.9954 56.1368 22.1635 56.207 22.3322 56.2787C22.5424 56.369 22.7531 56.4602 22.963 56.5458C23.133 56.6152 23.3016 56.6798 23.4707 56.7463C23.6761 56.8269 23.8813 56.9078 24.0856 56.9841C24.2558 57.0474 24.4244 57.1074 24.5935 57.168C24.7938 57.2397 24.9941 57.3118 25.1929 57.3793C25.3617 57.4365 25.5277 57.491 25.6949 57.5454C25.8219 57.5872 25.9507 57.6319 26.0768 57.6719C26.1253 57.6873 26.1745 57.6998 26.223 57.7152C26.301 57.7394 26.3802 57.7669 26.4571 57.7901C30.3828 58.9922 34.6173 58.9922 38.5428 57.7901C38.6203 57.7669 38.6995 57.7394 38.7774 57.7147C38.826 57.6998 38.8752 57.6873 38.9237 57.6719C39.0492 57.6319 39.1776 57.5872 39.3042 57.5459C39.4717 57.4908 39.6388 57.4365 39.8079 57.3793C40.0058 57.3119 40.2056 57.2402 40.4055 57.1684C40.5751 57.1074 40.7442 57.0474 40.9148 56.9837C41.1187 56.9078 41.3228 56.8273 41.5277 56.7468C41.6979 56.6803 41.867 56.615 42.0376 56.5458C42.2468 56.4602 42.457 56.3694 42.6674 56.2797C42.836 56.207 43.0046 56.1368 43.1742 56.0614C43.3904 55.965 43.6071 55.8622 43.8243 55.7607C43.9885 55.684 44.1526 55.6098 44.3178 55.5298C44.5473 55.4185 44.777 55.2994 45.0071 55.1821C45.1599 55.1035 45.3126 55.0289 45.4658 54.9485C45.7202 54.8135 45.9741 54.6707 46.2286 54.5286C46.3579 54.4561 46.4869 54.3882 46.6163 54.3137C46.9992 54.0931 47.381 53.8641 47.7624 53.6253C48.1303 53.3963 48.4939 53.1539 48.8574 52.9073C49.2065 52.6695 49.5507 52.427 49.8952 52.1756C51.679 50.8604 53.4009 49.3162 55.0036 47.4984C57.0408 48.0773 58.3371 48.3779 58.4804 48.4096C58.9203 48.5083 59.3556 48.5576 59.7861 48.5576C62.1348 48.5576 64.2582 47.1395 64.8464 45.0029C65.5402 42.4758 63.8179 39.904 60.9961 39.2576Z" fill="#222222"/>
<path d="M96.472 11.1839H90.36V29.9999H85.912V11.1839H79.832V7.21593H96.472V11.1839ZM114.945 29.9999H106.881C104.321 29.9999 102.519 29.5626 101.473 28.6879C100.449 27.7919 99.9373 26.2239 99.9373 23.9839V7.21593H114.945V11.1839H104.385V16.5279H111.777L111.457 20.4959H104.385V23.6639C104.385 24.5599 104.588 25.1786 104.993 25.5199C105.399 25.8612 106.135 26.0319 107.201 26.0319H114.945V29.9999ZM134.128 11.1839H128.016V29.9999H123.568V11.1839H117.488V7.21593H134.128V11.1839ZM154.298 17.5519V19.2799C154.298 23.0986 153.572 25.8719 152.122 27.5999C150.692 29.3279 148.388 30.1919 145.21 30.1919C142.031 30.1919 139.727 29.3279 138.298 27.5999C136.89 25.8719 136.186 23.0666 136.186 19.1839V17.5199C136.186 13.9786 136.9 11.3439 138.33 9.61593C139.78 7.88793 142.063 7.02393 145.178 7.02393C148.314 7.02393 150.618 7.8986 152.09 9.64793C153.562 11.3972 154.298 14.0319 154.298 17.5519ZM149.85 19.1839V17.9999C149.85 15.9519 149.594 14.3199 149.082 13.1039C148.484 11.6959 147.204 10.9919 145.242 10.9919C143.258 10.9919 141.967 11.6959 141.37 13.1039C140.879 14.2559 140.634 15.8879 140.634 17.9999V19.1839C140.634 21.9359 141.018 23.7919 141.786 24.7519C142.084 25.1572 142.522 25.5092 143.098 25.8079C143.695 26.0852 144.399 26.2239 145.21 26.2239C146.042 26.2239 146.746 26.0852 147.322 25.8079C147.898 25.5306 148.346 25.1892 148.666 24.7839C148.986 24.3786 149.231 23.8452 149.402 23.1839C149.7 22.1386 149.85 20.8052 149.85 19.1839ZM173.003 11.1839H166.891V29.9999H162.443V11.1839H156.363V7.21593H173.003V11.1839ZM191.477 29.9999H183.413C180.853 29.9999 179.05 29.5626 178.005 28.6879C176.981 27.7919 176.469 26.2239 176.469 23.9839V7.21593H191.477V11.1839H180.917V16.5279H188.309L187.989 20.4959H180.917V23.6639C180.917 24.5599 181.119 25.1786 181.525 25.5199C181.93 25.8612 182.666 26.0319 183.733 26.0319H191.477V29.9999ZM197.388 27.3199C197.601 27.5199 197.708 27.9532 197.708 28.6199C197.708 29.2866 197.601 29.7266 197.388 29.9399C197.188 30.1532 196.754 30.2599 196.088 30.2599C195.421 30.2599 194.981 30.1532 194.768 29.9399C194.554 29.7266 194.448 29.2866 194.448 28.6199C194.448 27.9532 194.554 27.5199 194.768 27.3199C194.981 27.1066 195.421 26.9999 196.088 26.9999C196.754 26.9999 197.188 27.1066 197.388 27.3199ZM206.386 25.8199L208.746 25.7999C208.733 25.9066 208.719 26.0999 208.706 26.3799C208.693 26.6599 208.679 26.8532 208.666 26.9599C208.666 27.0532 208.653 27.2066 208.626 27.4199C208.599 27.6332 208.566 27.7932 208.526 27.8999C208.499 27.9932 208.459 28.1199 208.406 28.2799C208.166 28.9732 207.513 29.5199 206.446 29.9199C205.766 30.1599 205.053 30.2799 204.306 30.2799C203.573 30.2799 202.906 30.1599 202.306 29.9199C201.706 29.6799 201.233 29.3732 200.886 28.9999C200.099 28.1732 199.706 26.6266 199.706 24.3599C199.706 22.0799 200.099 20.5266 200.886 19.6999C201.233 19.3266 201.706 19.0199 202.306 18.7799C202.906 18.5399 203.573 18.4199 204.306 18.4199C205.746 18.4199 206.839 18.7799 207.586 19.4999C208.333 20.2199 208.706 21.2199 208.706 22.4999H206.346C206.346 21.9132 206.199 21.4799 205.906 21.1999C205.613 20.9066 205.066 20.7599 204.266 20.7599C203.479 20.7599 202.953 21.0066 202.686 21.4999C202.433 21.9932 202.306 22.7332 202.306 23.7199V24.7599C202.306 26.3466 202.613 27.3199 203.226 27.6799C203.506 27.8532 203.873 27.9399 204.326 27.9399C204.779 27.9399 205.146 27.8999 205.426 27.8199C205.719 27.7266 205.926 27.5732 206.046 27.3599C206.179 27.1466 206.266 26.9399 206.306 26.7399C206.346 26.5266 206.373 26.2199 206.386 25.8199ZM217.097 24.8399V23.7999C217.097 22.8132 216.95 22.0599 216.657 21.5399C216.377 21.0199 215.784 20.7599 214.877 20.7599C213.41 20.7599 212.677 21.7466 212.677 23.7199V24.7599C212.677 26.8799 213.41 27.9399 214.877 27.9399C215.824 27.9399 216.444 27.5866 216.737 26.8799C216.977 26.3199 217.097 25.6399 217.097 24.8399ZM219.697 24.2399C219.697 26.7066 219.23 28.3599 218.297 29.1999C217.51 29.9199 216.37 30.2799 214.877 30.2799C212.97 30.2799 211.684 29.7199 211.017 28.5999C210.39 27.5732 210.077 26.1199 210.077 24.2399C210.077 22.4799 210.39 21.0999 211.017 20.0999C211.71 18.9799 212.97 18.4199 214.797 18.4199C216.637 18.4199 217.91 18.9132 218.617 19.8999C219.337 20.8732 219.697 22.3199 219.697 24.2399ZM224.516 27.3199C224.73 27.5199 224.836 27.9532 224.836 28.6199C224.836 29.2866 224.73 29.7266 224.516 29.9399C224.316 30.1532 223.883 30.2599 223.216 30.2599C222.55 30.2599 222.11 30.1532 221.896 29.9399C221.683 29.7266 221.576 29.2866 221.576 28.6199C221.576 27.9532 221.683 27.5199 221.896 27.3199C222.11 27.1066 222.55 26.9999 223.216 26.9999C223.883 26.9999 224.316 27.1066 224.516 27.3199ZM230.175 29.9999L227.575 30.0199V14.9599H230.175V29.9999ZM237.848 29.9999H236.228C235.241 29.9999 234.488 29.7066 233.968 29.1199C233.461 28.5332 233.208 27.8332 233.208 27.0199V21.0199H232.108V19.0399H233.208V16.7999H235.808V19.0399H237.648V21.0199H235.808V26.8599C235.808 27.4866 236.108 27.7999 236.708 27.7999H237.848V29.9999ZM248.299 29.9999H246.559L245.759 28.6199L242.979 30.1199C241.432 30.1199 240.392 29.5599 239.859 28.4399C239.592 27.8932 239.406 27.3066 239.299 26.6799C239.206 26.0399 239.159 25.3799 239.159 24.6999C239.159 24.0066 239.166 23.4999 239.179 23.1799C239.192 22.8466 239.226 22.4666 239.279 22.0399C239.332 21.5999 239.406 21.2332 239.499 20.9399C239.606 20.6466 239.752 20.3466 239.939 20.0399C240.126 19.7199 240.352 19.4666 240.619 19.2799C241.219 18.8666 241.999 18.6599 242.959 18.6599H245.699V14.9599H248.299V29.9999ZM245.699 26.3599V20.9999H243.719C242.986 20.9999 242.472 21.2799 242.179 21.8399C241.899 22.3999 241.759 23.2399 241.759 24.3599C241.759 25.4666 241.892 26.2466 242.159 26.6999C242.439 27.1532 242.959 27.3799 243.719 27.3799L245.699 26.3599ZM91.44 53.9999H88.22L85.44 48.7199H83.44V53.9999H80.66V42.8199C80.66 41.7532 80.9067 40.9799 81.4 40.4999C81.8933 40.0066 82.72 39.7599 83.88 39.7599H86.24C87.6533 39.7599 88.7733 40.1932 89.6 41.0599C90.44 41.9132 90.86 42.9999 90.86 44.3199C90.86 45.2799 90.6067 46.1132 90.1 46.8199C89.6067 47.5132 88.9933 47.9932 88.26 48.2599L91.44 53.9999ZM86.06 46.3999C86.6467 46.3999 87.1267 46.1999 87.5 45.7999C87.8867 45.3866 88.08 44.8799 88.08 44.2799C88.08 43.6666 87.8933 43.1732 87.52 42.7999C87.16 42.4266 86.6733 42.2399 86.06 42.2399H84.68C83.8533 42.2399 83.44 42.6599 83.44 43.4999V46.3999H86.06ZM103.126 53.9999H98.0859C96.4859 53.9999 95.3593 53.7266 94.7059 53.1799C94.0659 52.6199 93.7459 51.6399 93.7459 50.2399V39.7599H103.126V42.2399H96.5259V45.5799H101.146L100.946 48.0599H96.5259V50.0399C96.5259 50.5999 96.6526 50.9866 96.9059 51.1999C97.1593 51.4132 97.6193 51.5199 98.2859 51.5199H103.126V53.9999ZM113.055 48.4799H115.635C115.635 50.2932 115.182 51.6866 114.275 52.6599C113.369 53.6332 112.089 54.1199 110.435 54.1199C106.795 54.1199 104.975 51.9799 104.975 47.6999V46.4999C104.975 43.1266 105.909 41.0132 107.775 40.1599C108.509 39.8132 109.395 39.6399 110.435 39.6399C111.955 39.6399 113.189 40.0599 114.135 40.8999C115.095 41.7266 115.575 42.9266 115.575 44.4999H112.975C112.829 43.7132 112.569 43.1199 112.195 42.7199C111.822 42.3199 111.235 42.1199 110.435 42.1199C109.502 42.1199 108.809 42.4132 108.355 42.9999C108.035 43.4132 107.849 44.1199 107.795 45.1199C107.769 45.4399 107.755 45.8732 107.755 46.4199V47.6599C107.755 49.1932 107.969 50.2399 108.395 50.7999C108.835 51.3599 109.515 51.6399 110.435 51.6399C111.369 51.6399 112.009 51.3866 112.355 50.8799C112.715 50.3599 112.949 49.5599 113.055 48.4799ZM128.784 53.9999H125.564L122.784 48.7199H120.784V53.9999H118.004V42.8199C118.004 41.7532 118.25 40.9799 118.744 40.4999C119.237 40.0066 120.064 39.7599 121.224 39.7599H123.584C124.997 39.7599 126.117 40.1932 126.944 41.0599C127.784 41.9132 128.204 42.9999 128.204 44.3199C128.204 45.2799 127.95 46.1132 127.444 46.8199C126.95 47.5132 126.337 47.9932 125.604 48.2599L128.784 53.9999ZM123.404 46.3999C123.99 46.3999 124.47 46.1999 124.844 45.7999C125.23 45.3866 125.424 44.8799 125.424 44.2799C125.424 43.6666 125.237 43.1732 124.864 42.7999C124.504 42.4266 124.017 42.2399 123.404 42.2399H122.024C121.197 42.2399 120.784 42.6599 120.784 43.4999V46.3999H123.404ZM141.55 39.7599V49.1199C141.55 50.6666 141.023 51.8866 139.97 52.7799C138.93 53.6732 137.643 54.1199 136.11 54.1199C134.576 54.1199 133.283 53.6732 132.23 52.7799C131.19 51.8866 130.67 50.6666 130.67 49.1199V39.7599H133.45V49.0199C133.45 49.8999 133.69 50.5599 134.17 50.9999C134.663 51.4266 135.31 51.6399 136.11 51.6399C136.91 51.6399 137.556 51.4266 138.05 50.9999C138.543 50.5599 138.79 49.8999 138.79 49.0199V39.7599H141.55ZM147.229 53.9999H144.449V39.7599H147.229V53.9999ZM159.803 42.2399H155.983V53.9999H153.203V42.2399H149.403V39.7599H159.803V42.2399ZM164.749 53.9999H161.969V39.7599H164.749V53.9999ZM179.162 39.7599V52.5599C179.162 52.9999 179.029 53.3799 178.762 53.6999C178.496 54.0066 178.182 54.1599 177.822 54.1599C176.902 54.1599 176.149 53.6266 175.562 52.5599L170.642 44.8599V53.9999H167.862V39.7599H170.542L176.382 49.0799V39.7599H179.162ZM181.167 47.2999V45.5399C181.167 43.6866 181.653 42.2399 182.627 41.1999C183.6 40.1599 184.947 39.6399 186.667 39.6399C188.387 39.6399 189.767 40.1599 190.807 41.1999C191.54 41.9332 191.907 43.0332 191.907 44.4999H189.307C189.307 42.9132 188.46 42.1199 186.767 42.1199C186.26 42.1199 185.827 42.2199 185.467 42.4199C185.12 42.6066 184.86 42.8266 184.687 43.0799C184.513 43.3332 184.38 43.7066 184.287 44.1999C184.193 44.6932 184.14 45.1066 184.127 45.4399C184.113 45.7732 184.107 46.2199 184.107 46.7799C184.107 47.3399 184.107 47.7199 184.107 47.9199C184.12 48.1066 184.14 48.4199 184.167 48.8599C184.207 49.2866 184.26 49.5932 184.327 49.7799C184.407 49.9666 184.513 50.2066 184.647 50.4999C184.793 50.7932 184.973 50.9999 185.187 51.1199C185.733 51.4666 186.353 51.6399 187.047 51.6399C188.207 51.6399 189.027 51.1466 189.507 50.1599V49.1999H187.787V46.8799H191.887V51.1799C191.473 52.1532 190.82 52.8866 189.927 53.3799C189.033 53.8732 188.02 54.1199 186.887 54.1199C184.873 54.1199 183.413 53.5599 182.507 52.4399C181.613 51.3066 181.167 49.5932 181.167 47.2999Z" fill="#222222"/>
</svg>
